<mxfile host="app.diagrams.net" modified="2020-10-28T11:46:20.628Z" agent="5.0 (Windows)" etag="xt0EF2sHHUhNP1xxJYOq" version="13.8.5" type="github">
  <diagram id="EJyE3xgY3rA5Oy8GQSxj" name="Page-1">
    <mxGraphModel dx="942" dy="558" grid="1" gridSize="10" guides="1" tooltips="1" connect="1" arrows="1" fold="1" page="1" pageScale="1" pageWidth="827" pageHeight="1169" math="0" shadow="0">
      <root>
        <mxCell id="0" />
        <mxCell id="1" parent="0" />
        <mxCell id="Eurr6QDvCMiPPO9meUgi-1" value="" style="rounded=0;whiteSpace=wrap;html=1;rotation=90;" vertex="1" parent="1">
          <mxGeometry x="217.5" y="332.5" width="335" height="190" as="geometry" />
        </mxCell>
        <mxCell id="CMk42NDVx-9z72aOCZey-2" value="Gerar relatório" style="ellipse;whiteSpace=wrap;html=1;" parent="1" vertex="1">
          <mxGeometry x="350" y="340" width="75" height="50" as="geometry" />
        </mxCell>
        <mxCell id="CMk42NDVx-9z72aOCZey-3" value="Cadastrar assuntos e demandas" style="ellipse;whiteSpace=wrap;html=1;" parent="1" vertex="1">
          <mxGeometry x="350" y="400" width="75" height="50" as="geometry" />
        </mxCell>
        <mxCell id="CMk42NDVx-9z72aOCZey-4" value="Logar no Sistema" style="ellipse;whiteSpace=wrap;html=1;" parent="1" vertex="1">
          <mxGeometry x="350" y="280" width="75" height="50" as="geometry" />
        </mxCell>
        <mxCell id="CMk42NDVx-9z72aOCZey-5" value="Registrar saída de materiais" style="ellipse;whiteSpace=wrap;html=1;" parent="1" vertex="1">
          <mxGeometry x="347.5" y="460" width="75" height="50" as="geometry" />
        </mxCell>
        <mxCell id="CMk42NDVx-9z72aOCZey-6" value="Registrar entrada de materiais" style="ellipse;whiteSpace=wrap;html=1;" parent="1" vertex="1">
          <mxGeometry x="347.5" y="525" width="75" height="50" as="geometry" />
        </mxCell>
        <mxCell id="Eurr6QDvCMiPPO9meUgi-2" value="Gestor geral" style="shape=umlActor;verticalLabelPosition=bottom;verticalAlign=top;html=1;outlineConnect=0;" vertex="1" parent="1">
          <mxGeometry x="160" y="440" width="30" height="60" as="geometry" />
        </mxCell>
        <mxCell id="Eurr6QDvCMiPPO9meUgi-3" value="&lt;div&gt;Aluno&lt;/div&gt;&lt;div&gt;&lt;br&gt;&lt;/div&gt;" style="shape=umlActor;verticalLabelPosition=bottom;verticalAlign=top;html=1;outlineConnect=0;" vertex="1" parent="1">
          <mxGeometry x="630" y="525" width="30" height="60" as="geometry" />
        </mxCell>
      </root>
    </mxGraphModel>
  </diagram>
</mxfile>
